HIERARCHY
ROOT Hips
{
	OFFSET -0.001795 -0.223333 0.028219
	CHANNELS 6 Xposition Yposition Zposition Zrotation Yrotation Xrotation 
	JOINT LeftUpLeg
	{
		OFFSET 0.069520 -0.091406 -0.006815
		CHANNELS 3 Zrotation Yrotation Xrotation
		JOINT LeftLeg
		{
			OFFSET 0.034277 -0.375199 -0.004496
			CHANNELS 3 Zrotation Yrotation Xrotation
			JOINT LeftFoot
			{
				OFFSET -0.013596 -0.397961 -0.043693
				CHANNELS 3 Zrotation Yrotation Xrotation
				JOINT LeftToe
				{
					OFFSET 0.026358 -0.055791 0.119288
					CHANNELS 3 Zrotation Yrotation Xrotation
					End Site
					{
						OFFSET 0.000000 0.000000 0.000000
					}
				}
			}
		}
	}
	JOINT RightUpLeg
	{
		OFFSET -0.067670 -0.090522 -0.004320
		CHANNELS 3 Zrotation Yrotation Xrotation
		JOINT RightLeg
		{
			OFFSET -0.038290 -0.382569 -0.008850
			CHANNELS 3 Zrotation Yrotation Xrotation
			JOINT RightFoot
			{
				OFFSET 0.015774 -0.398415 -0.042312
				CHANNELS 3 Zrotation Yrotation Xrotation
				JOINT RightToe
				{
					OFFSET -0.025372 -0.048144 0.123348
					CHANNELS 3 Zrotation Yrotation Xrotation
					End Site
					{
						OFFSET 0.000000 0.000000 0.000000
					}
				}
			}
		}
	}
	JOINT Spine
	{
		OFFSET -0.002533 0.108963 -0.026696
		CHANNELS 3 Zrotation Yrotation Xrotation
		JOINT Spine1
		{
			OFFSET 0.005487 0.135180 0.001092
			CHANNELS 3 Zrotation Yrotation Xrotation
			JOINT Spine2
			{
				OFFSET 0.001457 0.052922 0.025425
				CHANNELS 3 Zrotation Yrotation Xrotation
				JOINT Neck
				{
					OFFSET -0.002778 0.213870 -0.042857
					CHANNELS 3 Zrotation Yrotation Xrotation
					JOINT Head
					{
						OFFSET 0.005152 0.064970 0.051349
						CHANNELS 3 Zrotation Yrotation Xrotation
						End Site
						{
							OFFSET 0.000000 0.000000 0.000000
						}
					}
				}
				JOINT LeftShoulder
				{
					OFFSET 0.078845 0.121749 -0.034090
					CHANNELS 3 Zrotation Yrotation Xrotation
					JOINT LeftArm
					{
						OFFSET 0.090977 0.030469 -0.008868
						CHANNELS 3 Zrotation Yrotation Xrotation
						JOINT LeftForeArm
						{
							OFFSET 0.259612 -0.012772 -0.027456
							CHANNELS 3 Zrotation Yrotation Xrotation
							JOINT LeftHand
							{
								OFFSET 0.249234 0.008986 -0.001171
								CHANNELS 3 Zrotation Yrotation Xrotation
								End Site
								{
									OFFSET 0.000000 0.000000 0.000000
								}
							}
						}
					}
				}
				JOINT RightShoulder
				{
					OFFSET -0.081759 0.118833 -0.038615
					CHANNELS 3 Zrotation Yrotation Xrotation
					JOINT RightArm
					{
						OFFSET -0.096012 0.032551 -0.009143
						CHANNELS 3 Zrotation Yrotation Xrotation
						JOINT RightForeArm
						{
							OFFSET -0.253742 -0.013329 -0.021401
							CHANNELS 3 Zrotation Yrotation Xrotation
							JOINT RightHand
							{
								OFFSET -0.255298 0.007772 -0.005559
								CHANNELS 3 Zrotation Yrotation Xrotation
								End Site
								{
									OFFSET 0.000000 0.000000 0.000000
								}
							}
						}
					}
				}
			}
		}
	}
}
MOTION
Frames: 13
Frame Time: 0.050000
0.000000 0.846847 0.000000 -1.860963 1.650873 15.948445 6.679212 -2.321607 -53.465916 -4.767468 0.728515 37.737520 2.098972 5.288007 1.683412 0.000000 0.000000 0.000000 -9.837530 0.825536 -35.387217 7.420990 -3.142811 52.846120 -5.283495 -12.709570 -4.608620 0.000000 0.000000 0.000000 -7.869314 1.360114 47.471252 6.880944 -0.575345 -27.195725 1.685262 2.755235 25.643352 -8.376910 6.156999 -33.907308 0.000000 0.000000 0.000000 -20.811047 -26.999263 13.643197 -47.125824 -45.465355 10.965022 -24.186542 -52.795227 15.482020 0.000000 0.000000 0.000000 12.082617 27.098963 13.468123 46.361417 27.905545 4.298177 -4.885809 41.231569 0.389869 0.000000 0.000000 0.000000 
0.005995 0.845207 0.020522 -2.235019 1.512416 16.892705 7.381705 -1.982843 -54.431502 -6.033364 1.401217 40.035468 2.508971 5.694029 0.366825 0.000000 0.000000 0.000000 -10.578288 0.661370 -37.146832 7.328952 -3.250620 55.937371 -3.498649 -8.886746 -0.506053 0.000000 0.000000 0.000000 -7.471802 1.208874 46.358337 6.233104 -0.443369 -27.167924 1.233176 1.523217 24.384142 -10.420005 6.640146 -36.495950 0.000000 0.000000 0.000000 -24.742065 -25.802257 14.175214 -44.888340 -41.173189 8.432096 -31.655906 -54.910223 20.595474 0.000000 0.000000 0.000000 13.558076 27.417960 13.826637 46.714593 24.398221 3.044304 -3.609213 42.995449 0.832307 0.000000 0.000000 0.000000 
0.010735 0.845117 0.039258 -2.286878 1.410205 16.113524 6.931871 -2.125161 -53.509380 -6.017757 1.440808 42.261004 2.749269 5.797101 -0.761939 0.000000 0.000000 0.000000 -11.403188 0.425597 -37.721498 9.021108 -4.739097 60.078201 -4.099870 -10.994470 2.125211 0.000000 0.000000 0.000000 -6.910520 0.948367 46.866556 5.727601 -0.321045 -27.477603 1.329528 1.977555 23.431511 -9.263929 6.571679 -30.443955 0.000000 0.000000 0.000000 -28.861874 -27.017307 15.637027 -41.799881 -39.279332 6.970975 -30.076832 -51.396863 18.001526 0.000000 0.000000 0.000000 16.647239 27.613384 14.798026 43.812641 21.824894 1.708582 -1.745459 41.122876 1.310280 0.000000 0.000000 0.000000 
0.013316 0.846501 0.055463 -3.241942 1.312245 16.250561 7.982125 -1.581010 -53.369051 -6.567108 1.804514 43.724578 2.804322 5.795240 -1.104146 0.000000 0.000000 0.000000 -13.254231 -0.138466 -40.270461 10.110404 -5.783034 62.207790 -2.490662 -8.132620 5.462900 0.000000 0.000000 0.000000 -7.678109 1.335870 46.420827 7.235370 -0.585636 -27.516236 1.240069 2.198503 22.571796 -11.040542 7.208337 -33.080237 0.000000 0.000000 0.000000 -30.530687 -25.899972 15.094347 -41.456683 -37.571064 6.341294 -31.503680 -49.560164 17.904331 0.000000 0.000000 0.000000 18.808062 27.437779 15.309767 41.438455 18.710370 0.472179 0.582848 40.489277 2.009496 0.000000 0.000000 0.000000 
0.012604 0.847780 0.068827 -3.475670 2.255032 15.941955 8.163140 -1.727232 -52.586909 -6.605079 1.688608 44.351616 2.643306 5.215792 -1.726468 0.000000 0.000000 0.000000 -16.250023 -1.198306 -39.175894 12.311047 -7.329672 58.209796 -4.359019 -11.733829 2.854922 0.000000 0.000000 0.000000 -7.441445 1.006088 46.003392 8.072846 -0.724810 -27.594776 1.383947 1.228519 23.251436 -12.500332 7.795475 -33.354246 0.000000 0.000000 0.000000 -33.263406 -25.248820 15.454100 -38.619995 -36.030642 5.012783 -29.591503 -49.156157 16.766297 0.000000 0.000000 0.000000 20.391180 26.805745 15.164038 39.404466 17.280205 -0.167768 1.179043 39.656613 2.095179 0.000000 0.000000 0.000000 
0.008385 0.848950 0.078790 -4.324054 1.370302 16.330510 9.399120 -0.903469 -52.094027 -6.685550 1.919027 44.406929 2.903553 5.540876 -2.426682 0.000000 0.000000 0.000000 -17.623958 -1.471728 -39.988740 12.959360 -6.739832 52.529184 -6.027247 -14.982838 -3.754190 0.000000 0.000000 0.000000 -6.366881 0.678366 46.033092 7.011773 -0.372010 -29.591003 1.856598 0.665646 25.010412 -13.975156 8.192481 -35.391956 0.000000 0.000000 0.000000 -32.766939 -24.253067 15.160377 -38.078272 -36.083041 4.594139 -30.450430 -49.562050 17.504223 0.000000 0.000000 0.000000 21.129746 26.655237 14.985634 38.071592 16.388805 -0.574507 0.712909 41.749028 2.020144 0.000000 0.000000 0.000000 
0.000315 0.849408 0.086359 -4.753446 0.088790 17.341308 11.168542 0.241542 -51.913662 -7.842381 2.775577 43.684096 3.275296 6.230336 -2.901150 0.000000 0.000000 0.000000 -18.759974 -1.674585 -41.996878 12.037445 -5.072787 45.678949 -5.520773 -14.213311 -0.371107 0.000000 0.000000 0.000000 -6.019071 0.796736 45.158307 7.439442 -0.470459 -29.287132 1.848866 1.692564 24.086241 -13.092465 7.820317 -35.207427 0.000000 0.000000 0.000000 -33.146034 -23.121768 14.183254 -37.164034 -35.070926 4.186495 -32.321492 -48.628500 18.005424 0.000000 0.000000 0.000000 21.617880 25.546383 14.621416 37.325203 17.297904 -0.346512 -0.819244 41.732008 1.526114 0.000000 0.000000 0.000000 
-0.011129 0.848106 0.092101 -4.446843 -0.397943 18.320480 11.805593 0.668684 -52.390486 -8.027081 2.982245 43.650451 3.443465 6.575464 -3.067723 0.000000 0.000000 0.000000 -19.389402 -1.825127 -43.041889 10.792974 -3.868373 40.615858 -3.574494 -10.714420 5.470082 0.000000 0.000000 0.000000 -4.796240 0.327563 45.442335 6.783936 -0.241788 -30.621151 1.172026 1.303624 24.386781 -11.747255 7.235429 -34.325859 0.000000 0.000000 0.000000 -32.859758 -21.967592 13.609857 -35.796717 -34.056382 3.478473 -32.974567 -48.719000 18.406586 0.000000 0.000000 0.000000 22.013699 25.168381 14.313860 36.121057 17.838849 -0.250852 -2.114738 42.729356 1.054977 0.000000 0.000000 0.000000 
-0.025606 0.845987 0.097494 -3.896097 -1.315973 18.485311 12.285058 1.125772 -52.459070 -8.089148 3.228563 44.527125 3.594117 7.035766 -2.662358 0.000000 0.000000 0.000000 -19.394252 -1.688362 -43.865599 10.482350 -3.553808 40.326203 -2.232771 -8.468123 7.994812 0.000000 0.000000 0.000000 -4.525533 0.386785 46.029695 5.517396 -0.059136 -30.579008 1.866294 1.556895 23.208991 -10.817550 6.787589 -33.913480 0.000000 0.000000 0.000000 -32.622910 -21.763295 13.418973 -34.810394 -33.593454 3.261618 -30.856052 -47.391857 16.729462 0.000000 0.000000 0.000000 21.855172 25.618564 14.470486 35.648489 18.984113 0.156667 -3.944296 43.198444 0.368159 0.000000 0.000000 0.000000 
-0.042240 0.843554 0.102735 -3.280663 -1.308857 18.023996 13.260002 1.513112 -51.976061 -8.878292 3.721905 45.180912 3.478086 6.896397 -2.236699 0.000000 0.000000 0.000000 -19.292617 -1.736516 -44.397013 10.137886 -3.505561 42.024344 -1.175135 -6.276195 8.267067 0.000000 0.000000 0.000000 -4.007394 0.125175 46.083971 5.148474 -0.053799 -29.930755 2.026604 1.996561 22.926498 -10.403013 6.633546 -34.358279 0.000000 0.000000 0.000000 -31.951344 -21.662411 12.975313 -35.459927 -32.367886 3.117085 -27.904355 -48.648885 15.704736 0.000000 0.000000 0.000000 21.979920 25.990185 14.859178 34.791337 19.991881 0.348040 -7.510957 43.828410 -0.952952 0.000000 0.000000 0.000000 
-0.060291 0.842594 0.107748 -2.724338 -1.675118 17.532329 13.817209 1.787715 -50.992359 -8.716554 3.712413 45.327847 3.431160 6.873079 -1.916746 0.000000 0.000000 0.000000 -19.204501 -1.633242 -44.087776 10.606984 -3.749610 42.978102 -0.821217 -4.732050 5.985200 0.000000 0.000000 0.000000 -3.448780 -0.082587 46.436705 4.436648 0.063548 -30.220451 2.659604 2.181820 23.616398 -9.972717 6.475581 -34.412761 0.000000 0.000000 0.000000 -31.059610 -22.214994 13.207138 -35.692602 -32.910450 3.271344 -23.561005 -48.957583 13.682342 0.000000 0.000000 0.000000 20.126764 27.019279 14.992599 34.915299 21.463605 0.733112 -9.898518 43.563220 -1.862675 0.000000 0.000000 0.000000 
-0.079187 0.843508 0.111558 -2.109689 -1.227303 17.155402 14.818103 2.013950 -50.056824 -9.288186 3.914850 44.702412 3.049862 6.380068 -0.811536 0.000000 0.000000 0.000000 -18.439645 -1.503669 -43.984824 10.744652 -4.022360 44.650657 -1.525347 -5.555873 3.812005 0.000000 0.000000 0.000000 -2.741049 -0.537142 46.557697 4.857250 -0.039773 -29.654447 2.755503 2.350316 22.553094 -9.993384 6.568249 -33.417426 0.000000 0.000000 0.000000 -32.144547 -22.448805 13.374028 -35.142305 -32.167020 3.090231 -21.881158 -48.515932 12.668268 0.000000 0.000000 0.000000 20.198496 27.680932 15.454807 33.813113 22.202031 0.899129 -9.168773 43.920701 -1.625312 0.000000 0.000000 0.000000 
-0.098514 0.845756 0.114055 -1.580608 -1.290825 17.266771 15.758621 2.317425 -48.824006 -9.571294 3.948606 42.877287 2.864659 6.224392 -0.034440 0.000000 0.000000 0.000000 -17.931828 -1.319621 -43.870157 11.355800 -4.383977 45.189139 -1.999023 -5.732212 1.080880 0.000000 0.000000 0.000000 -1.919125 -0.933988 46.697073 4.228772 0.068158 -29.785955 3.068028 2.044351 22.450413 -9.956003 6.444335 -34.158545 0.000000 0.000000 0.000000 -31.087978 -22.892821 13.667432 -36.019307 -33.587924 3.659377 -18.234421 -47.861264 10.815323 0.000000 0.000000 0.000000 18.825677 27.963320 15.146310 34.516737 23.000644 1.226968 -9.661586 44.362352 -1.827350 0.000000 0.000000 0.000000 
